<svg xmlns="http://www.w3.org/2000/svg" width="32" height="32"><path fill="#f36d5d" d="M1.328 0A1.33 1.33 0 000 1.328V16c0 8.837 7.163 16 16 16s16-7.163 16-16S24.837 0 16 0zm14.893 4.776c6.091.059 11.006 5.011 11.006 11.11l-.001.109v-.006c-.061 6.09-5.012 11.003-11.11 11.003l-.109-.001h.006c-6.129-.06-11.061-5.08-11.005-11.213.06-6.133 5.08-11.061 11.213-11.003zm-.041 3.027h-.064a8.143 8.143 0 00-8.142 8.057v.076a8.145 8.145 0 008.063 8.145h.078a8.132 8.132 0 008.132-8.059v-.078a8.142 8.142 0 00-8.05-8.142h-.005zm-.027 4.017a4.13 4.13 0 014.084 4.13v.035-.002a4.117 4.117 0 01-4.117 4.08h-.047.002l.003-.001a4.122 4.122 0 01.038-8.243h.039-.002z"/></svg>