<svg aria-hidden="true" style="position:absolute;width:0;height:0" xmlns="http://www.w3.org/2000/svg" overflow="hidden"><defs><symbol id="icon-slideshare" viewBox="0 0 20 20"><path d="M13 7.08a2.5 2.5 0 100-5 2.5 2.5 0 000 5zm5.845-1.137C15.265 8.498 13.616 8.051 12 8c-1.118-.057-1.5.298-1.5 1.08l.001 6c0 5 8.421 3.43 5.165-4.949 1.671-.959 3.076-2.434 3.876-3.412.411-.608-.028-1.245-.697-.776zM7 2.08a2.5 2.5 0 100 5 2.5 2.5 0 000-5zM8 8c-1.616.051-3.265.498-6.845-2.057-.669-.469-1.108.168-.697.775.8.979 2.205 2.453 3.876 3.412-3.256 8.379 5.165 9.949 5.165 4.949l.001-6C9.5 8.298 9.118 7.943 8 8z"/></symbol><symbol id="icon-issuu" viewBox="0 0 32 32"><path d="M1.328 0A1.33 1.33 0 000 1.328V16c0 8.837 7.163 16 16 16s16-7.163 16-16S24.837 0 16 0zm14.893 4.776c6.091.059 11.006 5.011 11.006 11.11l-.001.109v-.006c-.061 6.09-5.012 11.003-11.11 11.003l-.109-.001h.006c-6.129-.06-11.061-5.08-11.005-11.213.06-6.133 5.08-11.061 11.213-11.003zm-.041 3.027h-.064a8.143 8.143 0 00-8.142 8.057v.076a8.145 8.145 0 008.063 8.145h.078a8.132 8.132 0 008.132-8.059v-.078a8.142 8.142 0 00-8.05-8.142h-.005zm-.027 4.017a4.13 4.13 0 014.084 4.13v.035-.002a4.117 4.117 0 01-4.117 4.08h-.047.002l.003-.001a4.122 4.122 0 01.038-8.243h.039-.002z"/></symbol><symbol id="icon-facebook" viewBox="0 0 32 32"><path d="M19 6h5V0h-5c-3.86 0-7 3.14-7 7v3H8v6h4v16h6V16h5l1-6h-6V7c0-.542.458-1 1-1z"/></symbol><symbol id="icon-twitter" viewBox="0 0 32 32"><path d="M32 7.075a12.941 12.941 0 01-3.769 1.031 6.601 6.601 0 002.887-3.631 13.21 13.21 0 01-4.169 1.594A6.565 6.565 0 0022.155 4a6.563 6.563 0 00-6.563 6.563c0 .512.056 1.012.169 1.494A18.635 18.635 0 012.23 5.195a6.56 6.56 0 00-.887 3.3 6.557 6.557 0 002.919 5.463 6.565 6.565 0 01-2.975-.819v.081a6.565 6.565 0 005.269 6.437 6.574 6.574 0 01-2.968.112 6.588 6.588 0 006.131 4.563 13.17 13.17 0 01-9.725 2.719 18.568 18.568 0 0010.069 2.95c12.075 0 18.681-10.006 18.681-18.681 0-.287-.006-.569-.019-.85A13.216 13.216 0 0032 7.076z"/></symbol><symbol id="icon-youtube" viewBox="0 0 32 32"><path d="M31.681 9.6s-.313-2.206-1.275-3.175C29.187 5.15 27.825 5.144 27.2 5.069c-4.475-.325-11.194-.325-11.194-.325h-.012s-6.719 0-11.194.325c-.625.075-1.987.081-3.206 1.356C.631 7.394.325 9.6.325 9.6s-.319 2.588-.319 5.181v2.425c0 2.587.319 5.181.319 5.181s.313 2.206 1.269 3.175c1.219 1.275 2.819 1.231 3.531 1.369 2.563.244 10.881.319 10.881.319s6.725-.012 11.2-.331c.625-.075 1.988-.081 3.206-1.356.962-.969 1.275-3.175 1.275-3.175s.319-2.587.319-5.181v-2.425c-.006-2.588-.325-5.181-.325-5.181zM12.694 20.15v-8.994l8.644 4.513-8.644 4.481z"/></symbol><symbol id="icon-search" viewBox="0 0 32 32"><path d="M31.008 27.231l-7.58-6.447c-.784-.705-1.622-1.029-2.299-.998a11.954 11.954 0 002.87-7.787c0-6.627-5.373-12-12-12s-12 5.373-12 12 5.373 12 12 12c2.972 0 5.691-1.081 7.787-2.87-.031.677.293 1.515.998 2.299l6.447 7.58c1.104 1.226 2.907 1.33 4.007.23s.997-2.903-.23-4.007zM12 20a8 8 0 110-16 8 8 0 010 16z"/></symbol><symbol id="leftarrow" viewBox="0 0 32 32"><path fill="currentColor" d="M34.52 239.03L228.87 44.69c9.37-9.37 24.57-9.37 33.94 0l22.67 22.67c9.36 9.36 9.37 24.52.04 33.9L131.49 256l154.02 154.75c9.34 9.38 9.32 24.54-.04 33.9l-22.67 22.67c-9.37 9.37-24.57 9.37-33.94 0L34.52 272.97c-9.37-9.37-9.37-24.57 0-33.94z"/></symbol><symbol id="leftarrow" viewBox="0 0 32 32"><path fill="currentColor" d="M285.476 272.971L91.132 467.314c-9.373 9.373-24.569 9.373-33.941 0l-22.667-22.667c-9.357-9.357-9.375-24.522-.04-33.901L188.505 256 34.484 101.255c-9.335-9.379-9.317-24.544.04-33.901l22.667-22.667c9.373-9.373 24.569-9.373 33.941 0L285.475 239.03c9.373 9.372 9.373 24.568.001 33.941z"/></symbol></defs></svg>